<svg width="40" height="40" viewBox="0 0 40 40" fill="none" xmlns="http://www.w3.org/2000/svg">
<path d="M19.9985 23.1498C21.8413 23.1498 23.3353 21.656 23.3353 19.8133C23.3353 17.9706 21.8413 16.4768 19.9985 16.4768C18.1557 16.4768 16.6617 17.9706 16.6617 19.8133C16.6617 21.656 18.1557 23.1498 19.9985 23.1498Z" fill="#B84297"/>
<path d="M19.9977 8.7911e-06C16.9662 -0.00283686 13.974 0.685199 11.2484 2.01183V6.30817C13.6768 4.75828 16.4734 3.881 19.3522 3.76603C22.231 3.65107 25.0887 4.30255 27.6331 5.65386C30.1775 7.00517 32.3172 9.00781 33.8335 11.457C35.3497 13.9062 36.1881 16.714 36.263 19.5934V31.678C38.4092 28.6875 39.6889 25.1632 39.9613 21.4926C40.2337 17.8221 39.4883 14.1475 37.807 10.8731C36.1258 7.59867 33.5738 4.85122 30.4317 2.93292C27.2897 1.01461 23.6793 -0.000229797 19.9977 8.7911e-06Z" fill="#292D33"/>
<path d="M19.998 36.2694C15.8193 36.2692 11.801 34.6607 8.77698 31.7777C5.7529 28.8946 3.95517 24.9583 3.75677 20.7854H3.7379V8.3457C0.813726 12.4313 -0.466249 17.4671 0.152236 22.4527C0.770721 27.4382 3.24241 32.0089 7.07631 35.2565C10.9102 38.5042 15.8258 40.1913 20.8466 39.9827C25.8674 39.7741 30.626 37.6851 34.1771 34.1306V27.9734C32.7634 30.4904 30.7048 32.5855 28.2128 34.0436C25.7208 35.5016 22.8854 36.2698 19.998 36.2694Z" fill="#292D33"/>
<path d="M19.9981 25.1329C18.7891 25.134 17.6147 24.7293 16.6631 23.9838V27.8085C18.3979 28.5218 20.3162 28.6589 22.1349 28.1994C23.9536 27.74 25.5764 26.7083 26.764 25.2566C27.9516 23.8049 28.641 22.01 28.7306 20.1368C28.8202 18.2636 28.3053 16.4111 27.2617 14.8528C26.2181 13.2944 24.7011 12.1126 22.9346 11.4817C21.168 10.8508 19.2455 10.8043 17.4504 11.3489C15.6554 11.8935 14.083 13.0004 12.9651 14.5065C11.8472 16.0125 11.2431 17.8378 11.2419 19.7132V30.9591C12.2592 31.7598 13.3813 32.4177 14.5769 32.9143V19.708C14.5769 18.6361 14.8949 17.5882 15.4906 16.697C16.0863 15.8057 16.9329 15.111 17.9235 14.7008C18.9141 14.2906 20.0041 14.1833 21.0557 14.3924C22.1073 14.6015 23.0733 15.1177 23.8315 15.8757C24.5896 16.6336 25.1059 17.5993 25.3151 18.6507C25.5243 19.702 25.4169 20.7917 25.0066 21.7821C24.5963 22.7724 23.9015 23.6188 23.01 24.2144C22.1184 24.8099 21.0703 25.1277 19.9981 25.1277V25.1329Z" fill="#292D33"/>
<path d="M9.1571 28.9464V19.8135C9.15815 17.5265 9.88308 15.2985 11.2281 13.4485C12.573 11.5986 14.4691 10.2216 16.6447 9.51468C18.8203 8.8078 21.1638 8.80732 23.3397 9.5133C25.5156 10.2193 27.4122 11.5955 28.7579 13.4449C30.1037 15.2943 30.8295 17.522 30.8315 19.809C30.8335 22.096 30.1115 24.325 28.769 26.1768C27.4265 28.0285 25.5323 29.4081 23.3577 30.1178C21.183 30.8276 18.8395 30.8312 16.6627 30.1282V33.5927C19.1173 34.1869 21.6861 34.1148 24.1036 33.384C26.5211 32.6532 28.6994 31.2901 30.4134 29.4357C32.1274 27.5812 33.3148 25.3028 33.853 22.8359C34.3911 20.369 34.2604 17.8031 33.4744 15.4036C32.6884 13.0041 31.2755 10.8581 29.382 9.18732C27.4884 7.51657 25.1828 6.38177 22.7036 5.90024C20.2244 5.41871 17.6615 5.60793 15.28 6.44834C12.8984 7.28874 10.7846 8.74983 9.1571 10.6806V6.04976V3.18896C7.94981 3.96616 6.82942 4.87062 5.81519 5.88683V20.2388C5.90984 23.4361 7.0882 26.5064 9.1571 28.9464Z" fill="#292D33"/>
</svg>
